<?xml version="1.0" encoding="UTF-8"?>
<svg id="Capa_1" xmlns="http://www.w3.org/2000/svg" viewBox="0 0 409.6 409.6">
  <defs>
    <style>
      .cls-1 {
        fill: #fff;
      }
    </style>
  </defs>
  <path d="M409.6,77.45v255.5c-.2.48-.49.94-.57,1.44-3.35,20.35-21.86,34.63-43.81,34.56-106.71-.36-213.42-.15-320.13-.21-4.1,0-8.3-.21-12.28-1.1-19.01-4.28-31.98-20.91-31.99-40.89-.04-67.19-.02-134.39-.02-201.58,0-14.24,0-28.47.01-42.71.01-8.95,2.79-17.01,8.18-24.09,8.85-11.62,20.76-16.8,35.29-16.79,107.24.06,214.48.03,321.73.04,1.33,0,2.66,0,3.99.07,12.34.71,22.43,5.82,30.37,15.33,4.99,5.98,7.5,13.02,9.23,20.43ZM41.85,82.57v245.02h40.78v-179.53c1.87,1.17,3.09,1.92,4.3,2.69,38.19,24.18,76.4,48.34,114.53,72.62,2.73,1.74,4.62,1.83,7.41.05,38.12-24.29,76.33-48.45,114.53-72.63,1.27-.81,2.59-1.54,4.61-2.74v179.5h40.57V82.51c-6.67,0-13.17-.24-19.63.11-2.89.16-6.08.89-8.52,2.38-43.96,26.98-87.85,54.09-131.68,81.28-2.62,1.62-4.37,1.71-7.05.05-43.94-27.27-87.96-54.42-131.97-81.58-1.34-.83-2.79-2.05-4.22-2.09-7.81-.21-15.63-.1-23.67-.1Z"/>
  <path class="cls-1" d="M409.6,77.45c-1.73-7.42-4.24-14.45-9.23-20.43-7.94-9.51-18.03-14.63-30.37-15.33-1.33-.08-2.66-.07-3.99-.07-107.24,0-214.48.03-321.73-.04-14.54,0-26.44,5.17-35.29,16.79-5.39,7.08-8.17,15.15-8.18,24.09-.02,14.24-.01,28.47-.01,42.71,0,67.19-.02,134.39.02,201.58.01,19.99,12.98,36.62,31.99,40.89,3.98.89,8.18,1.1,12.28,1.1,106.71.06,213.42-.15,320.13.21,21.95.07,40.46-14.21,43.81-34.56.08-.5.38-.96.57-1.44v76.65H0V0h409.6v77.45Z"/>
  <path class="cls-1" d="M41.85,82.57c8.04,0,15.85-.11,23.67.1,1.43.04,2.88,1.26,4.22,2.09,44.01,27.16,88.03,54.3,131.97,81.58,2.68,1.66,4.43,1.58,7.05-.05,43.83-27.19,87.72-54.3,131.68-81.28,2.43-1.49,5.63-2.23,8.52-2.38,6.46-.35,12.96-.11,19.63-.11v245.03h-40.57v-179.5c-2.02,1.2-3.34,1.93-4.61,2.74-38.19,24.18-76.4,48.34-114.53,72.63-2.79,1.78-4.68,1.69-7.41-.05-38.13-24.28-76.34-48.43-114.53-72.62-1.21-.77-2.43-1.52-4.3-2.69v179.53h-40.78V82.57Z"/>
</svg>